HIERARCHY
ROOT root
{
	OFFSET	0	13.1	24.9
	CHANNELS 6  Xposition Yposition Zposition Xrotation Yrotation Zrotation
	JOINT spine_1
	{
		OFFSET	0	9.99999	0
		CHANNELS 3  Xrotation Yrotation Zrotation
		JOINT spine_2
		{
			OFFSET	0	112	-10
			CHANNELS 3  Xrotation Yrotation Zrotation
			JOINT spine_3
			{
				OFFSET	0	206.5	19.3
				CHANNELS 3  Xrotation Yrotation Zrotation
				JOINT spine_4
				{
					OFFSET	0	110.4	14.6
					CHANNELS 3  Xrotation Yrotation Zrotation
					JOINT neck_1
					{
						OFFSET	0	71.8	-50.3
						CHANNELS 3  Xrotation Yrotation Zrotation
						JOINT neck_2
						{
							OFFSET	0	86.2	-25.8
							CHANNELS 3  Xrotation Yrotation Zrotation
							JOINT head_ee
							{
								OFFSET	0	179.8	-8.7
								CHANNELS 3  Xrotation Yrotation Zrotation
								End Site
								{
									OFFSET	1	0	0
								}
							}
						}
					}
					JOINT left_clavicle
					{
						OFFSET	-43.2	22.4	-70.8
						CHANNELS 3  Xrotation Yrotation Zrotation
						JOINT left_shoulder
						{
							OFFSET	-93.9	-5.79999	48.7
							CHANNELS 3  Xrotation Yrotation Zrotation
							JOINT left_elbow
							{
								OFFSET	-291.4	-30.8	15.2
								CHANNELS 3  Xrotation Yrotation Zrotation
								JOINT left_lowarm_twist
								{
									OFFSET	-110.7	-3.89999	13.6
									CHANNELS 3  Xrotation Yrotation Zrotation
									JOINT left_hand
									{
										OFFSET	-110.7	-3.89999	13.6
										CHANNELS 3  Xrotation Yrotation Zrotation
										JOINT left_ee
										{
											OFFSET	-80.8	-5.10001	12.1
											CHANNELS 3  Xrotation Yrotation Zrotation
											End Site
											{
												OFFSET	1	0	0
											}
										}
									}
								}
							}
						}
					}
					JOINT right_clavicle
					{
						OFFSET	43.2	22.4	-70.8
						CHANNELS 3  Xrotation Yrotation Zrotation
						JOINT right_shoulder
						{
							OFFSET	93.9	-5.79999	48.7
							CHANNELS 3  Xrotation Yrotation Zrotation
							JOINT right_elbow
							{
								OFFSET	291.4	-30.8	15.2
								CHANNELS 3  Xrotation Yrotation Zrotation
								JOINT right_lowarm_twist
								{
									OFFSET	110.7	-3.89999	13.6
									CHANNELS 3  Xrotation Yrotation Zrotation
									JOINT right_hand
									{
										OFFSET	110.7	-3.89999	13.6
										CHANNELS 3  Xrotation Yrotation Zrotation
										JOINT right_ee
										{
											OFFSET	80.8	-5.10001	12.1
											CHANNELS 3  Xrotation Yrotation Zrotation
											End Site
											{
												OFFSET	1	0	0
											}
										}
									}
								}
							}
						}
					}
				}
			}
		}
	}
	JOINT left_hip
	{
		OFFSET	-82.8	-127.5	0.300001
		CHANNELS 3  Xrotation Yrotation Zrotation
		JOINT left_knee
		{
			OFFSET	-28.2	-396.7	2.2
			CHANNELS 3  Xrotation Yrotation Zrotation
			JOINT left_ankle
			{
				OFFSET	-11.7	-411.3	35.4
				CHANNELS 3  Xrotation Yrotation Zrotation
				JOINT left_toes
				{
					OFFSET	0	-60	-88.6
					CHANNELS 3  Xrotation Yrotation Zrotation
					JOINT left_foot_ee
					{
						OFFSET	-22.5	-16.5	-42.2
						CHANNELS 3  Xrotation Yrotation Zrotation
						End Site
						{
							OFFSET	1	0	0
						}
					}
				}
			}
		}
	}
	JOINT right_hip
	{
		OFFSET	82.8	-127.5	0.300001
		CHANNELS 3  Xrotation Yrotation Zrotation
		JOINT right_knee
		{
			OFFSET	28.2	-396.7	2.2
			CHANNELS 3  Xrotation Yrotation Zrotation
			JOINT right_ankle
			{
				OFFSET	11.7	-411.3	35.4
				CHANNELS 3  Xrotation Yrotation Zrotation
				JOINT right_toes
				{
					OFFSET	0	-60	-88.6
					CHANNELS 3  Xrotation Yrotation Zrotation
					JOINT right_foot_ee
					{
						OFFSET	22.5	-16.5	-42.2
						CHANNELS 3  Xrotation Yrotation Zrotation
						End Site
						{
							OFFSET	1	0	0
						}
					}
				}
			}
		}
	}
}
MOTION
Frames: 14
Frame Time: 0.02
837.12 643.486 -488.156 -118.227 -87.601 -124.492 0.596123 0.718649 3.11357 0.601366 0.519169 3.15294 0.632189 -0.119725 3.19311 0.618169 0.385811 3.172 -5.45481 6.40698 1.21529 -5.43465 10.9062 2.38308 -0.0 0.0 -0.0 -2.17629 19.4162 -0.965531 -14.3722 -9.7148 73.8567 0.208423 -5.89485 0.0107312 -23.6911 -1.40619 2.66126 -0.189942 24.928 8.81215 -0.0 0.0 -0.0 12.9939 26.6542 -25.5846 21.4514 -10.2547 -72.5178 1.83288 42.2339 -0.707924 -42.6702 3.23951 -4.24577 -2.40029 -13.3078 9.63364 0.0 0.0 0.0 30.1566 11.4287 2.6563 -1.42114 0.0559018 0.210925 -14.2015 13.1368 2.13358 -7.91725 0.0 0.0 -0.0 0.0 -0.0 -24.893 10.2102 3.16204 1.68393 0.072997 0.248079 39.3651 -5.21888 4.80245 -11.2236 0.0 0.0 0.0 0.0 0.0 
859.389 642.597 -494.852 -107.944 -87.5336 -114.23 0.783243 0.546456 3.12854 0.788622 0.346373 3.15693 0.809482 -0.280317 3.16348 0.795587 0.222555 3.16806 -6.22927 6.29624 1.48445 -6.21744 10.5653 2.69687 -0.0 0.0 -0.0 -1.95452 19.3583 -0.64509 -14.6336 -9.55702 73.4131 0.210217 -5.94522 0.0109163 -24.1003 -1.43982 2.70149 0.211323 26.2033 11.5594 -0.0 0.0 -0.0 13.0701 26.0224 -25.8365 20.3208 -9.59396 -72.1095 1.82746 42.1495 -0.704282 -42.6498 3.23728 -4.24441 -2.06718 -11.4253 8.44174 0.0 0.0 0.0 30.1215 11.0735 3.38897 -2.94611 0.110041 0.438693 -16.477 14.1732 2.48383 -10.0833 0.0 0.0 -0.0 0.0 -0.0 -26.8597 10.2394 3.77457 2.90546 0.130505 0.426671 37.7611 -6.58156 4.65991 -10.2258 0.0 0.0 0.0 0.0 0.0 
878.584 642.126 -502.246 -100.291 -87.1364 -106.726 1.09767 0.452324 3.20479 1.10335 0.247586 3.22705 1.11853 -0.373767 3.21489 1.10414 0.138382 3.23357 -6.50444 6.21911 0.848906 -6.49766 10.9077 2.06653 -0.0 0.0 -0.0 -1.46288 18.868 0.0117009 -14.557 -9.55526 72.367 0.194561 -5.50528 0.00935435 -21.7872 -1.25357 2.47099 0.765332 26.1608 14.7263 -0.0 0.0 -0.0 13.2925 26.077 -26.3451 19.4708 -9.18187 -71.6379 1.92855 43.6872 -0.77313 -42.4806 3.21876 -4.23307 -1.23797 -5.03333 6.03287 0.0 0.0 0.0 30.1501 10.5112 3.84289 -6.74054 0.218267 1.01085 -7.52462 11.6627 1.11928 -8.9965 0.0 0.0 -0.0 0.0 -0.0 -27.7984 10.264 4.31419 5.12188 0.244544 0.747496 32.8138 -6.76464 4.18187 -10.4451 0.0 0.0 0.0 0.0 0.0 
902.816 645.067 -511.173 -102.83 -87.4865 -109.275 0.955969 0.464041 3.21001 0.961664 0.258949 3.233 0.977756 -0.371661 3.222 0.963298 0.141582 3.24025 -8.20059 5.83792 2.39715 -8.19844 9.2208 3.65872 -0.0 0.0 -0.0 -1.3064 18.3253 0.165919 -14.3887 -9.55792 72.0958 0.215424 -6.09141 0.0114622 -21.3118 -1.21646 2.4227 1.11116 22.7895 15.7229 -0.0 0.0 -0.0 13.2057 26.3699 -26.1087 17.7566 -7.50255 -70.6438 1.98103 44.4556 -0.809631 -40.6482 3.02036 -4.10682 -0.470572 -0.289996 3.01906 0.0 0.0 0.0 29.6344 9.47819 4.44798 -10.1972 0.283688 1.53716 -3.45711 12.3831 0.510925 -9.29066 0.0 0.0 -0.0 0.0 -0.0 -29.4222 10.489 5.07572 4.68153 0.220898 0.684102 29.1561 -8.18252 3.79937 -11.1568 0.0 0.0 0.0 0.0 0.0 
921.123 644.931 -517.341 -97.4514 -87.9004 -103.767 0.871011 0.309758 3.15061 0.876526 0.108751 3.16392 0.883909 -0.510974 3.12432 0.870288 -0.0113908 3.16577 -8.48525 5.66465 1.59627 -8.49401 9.48089 2.85117 -0.0 0.0 -0.0 -0.875564 18.1016 0.787969 -14.1491 -9.61502 71.9399 0.20806 -5.88466 0.010694 -20.3331 -1.14133 2.32235 1.24801 24.1661 16.9668 -0.0 0.0 -0.0 13.0684 25.404 -25.9041 17.078 -6.5623 -70.9137 2.08213 45.8808 -0.881336 -38.8157 2.8261 -3.97431 0.269614 4.05496 -0.0982926 0.0 0.0 0.0 28.5786 8.80351 5.23018 -12.6797 0.311026 1.91706 3.72151 11.4975 -0.540289 -8.81066 0.0 0.0 -0.0 0.0 -0.0 -29.558 10.8018 5.57632 3.21589 0.145727 0.471861 25.0032 -9.0653 3.33402 -11.4241 0.0 0.0 0.0 0.0 0.0 
939.456 641.688 -524.429 -99.6757 -87.7859 -105.932 0.948436 0.364574 3.11852 0.953831 0.165495 3.13538 0.964196 -0.4453 3.10803 0.95072 0.0508936 3.13933 -8.24803 5.97577 0.475095 -8.26291 10.8333 1.7962 -0.0 0.0 -0.0 -0.300163 17.247 1.55872 -13.3048 -10.0248 71.7594 0.192329 -5.44252 0.00914152 -20.0446 -1.11951 2.29252 0.8668 25.0127 14.9593 -0.0 0.0 -0.0 12.8343 26.1259 -25.2799 16.0653 -4.42334 -70.3202 2.09268 46.0254 -0.888917 -37.7948 2.71975 -3.89782 1.23235 6.46828 -5.58085 0.0 0.0 0.0 29.8307 8.25126 5.58136 -18.279 0.312151 2.77582 10.926 13.4935 -1.55559 -11.3017 0.0 0.0 -0.0 0.0 -0.0 -31.3789 11.3633 6.44681 3.52516 0.161136 0.516803 24.223 -9.14681 3.24303 -10.2451 0.0 0.0 0.0 0.0 0.0 
967.339 645.608 -532.127 -112.121 -87.9534 -118.373 0.942417 0.563928 3.10756 0.947715 0.365143 3.1371 0.969246 -0.249199 3.14842 0.955502 0.25091 3.14829 -7.59827 5.88242 1.12919 -7.60274 10.1555 2.36824 -0.0 0.0 -0.0 0.176425 16.8819 2.25397 -12.7452 -10.2014 71.145 0.207031 -5.85575 0.0105887 -17.8564 -0.958996 2.06285 1.36452 22.6195 17.2122 -0.0 0.0 -0.0 12.5192 23.8173 -24.804 12.9049 0.0938336 -70.4055 2.08366 45.9018 -0.882435 -33.9281 2.32977 -3.59135 1.54961 9.17848 -6.57755 0.0 0.0 0.0 27.9424 7.50098 6.08053 -19.4224 0.302063 2.95097 15.3188 13.7481 -2.14705 -10.5777 0.0 0.0 -0.0 0.0 -0.0 -30.3517 10.9407 6.75179 0.572384 0.0239925 0.0845588 14.6847 -11.3628 2.05575 -9.11217 0.0 0.0 0.0 0.0 0.0 
983.6 645.475 -537.142 -112.359 -87.5516 -118.739 1.01981 0.654828 3.16881 1.02528 0.451968 3.20401 1.05213 -0.172172 3.23112 1.03772 0.340014 3.2178 -6.87155 5.24458 1.41201 -6.86727 8.7152 2.46464 -0.0 0.0 -0.0 0.461879 17.2119 2.73047 -11.9233 -11.4145 70.2892 0.325175 -9.15093 0.0260229 -16.7994 -0.884643 1.94978 1.35169 21.9726 16.9382 -0.0 0.0 -0.0 12.2315 23.0763 -24.2133 11.0993 2.89976 -70.1046 2.15861 46.9125 -0.936722 -31.4244 2.08869 -3.37924 2.36528 10.8555 -11.4144 0.0 0.0 0.0 26.9328 6.45921 6.99308 -19.743 0.298608 3.00004 21.155 14.4922 -2.89738 -9.99832 0.0 0.0 -0.0 0.0 -0.0 -28.6614 10.7431 7.17096 -3.04464 -0.11333 -0.453457 11.0456 -15.7494 1.57935 -8.09031 0.0 0.0 0.0 0.0 0.0 
1005.59 649.701 -544.193 -111.818 -87.8959 -118.11 0.911332 0.568243 3.12845 0.916701 0.368122 3.15822 0.9386 -0.252063 3.16959 0.92467 0.251419 3.16964 -6.93308 4.9474 1.66472 -6.92749 7.98443 2.66112 -0.0 0.0 -0.0 1.08638 16.2704 3.61433 -11.1419 -11.856 69.9415 0.309639 -8.72061 0.0236098 -14.8586 -0.753618 1.7387 1.49131 23.2971 18.1874 -0.0 0.0 -0.0 11.9335 22.1312 -23.6142 9.24403 5.16456 -70.1256 2.11785 46.3675 -0.907087 -29.3506 1.8962 -3.19578 2.7119 12.4053 -13.1003 0.0 0.0 0.0 25.407 5.76541 7.71509 -21.252 0.278657 3.23072 26.5765 16.2031 -3.56199 -10.0166 0.0 0.0 -0.0 0.0 -0.0 -27.6889 11.5319 7.83742 -6.64115 -0.215917 -0.995781 9.94962 -17.207 1.43337 -10.5913 0.0 0.0 0.0 0.0 0.0 
1030.34 654.685 -552.805 -120.424 -88.6455 -126.439 0.811107 0.504134 2.99016 0.816027 0.312929 3.01615 0.834065 -0.284183 3.01899 0.8214 0.195952 3.02599 -6.44067 4.63996 1.67165 -6.43244 7.37479 2.57943 -0.0 0.0 -0.0 1.52812 15.9757 4.28585 -10.1467 -12.4671 70.3434 0.397999 -11.1534 0.038861 -13.1488 -0.64419 1.5492 1.75331 23.1917 19.7704 -0.0 0.0 -0.0 12.0533 20.0127 -24.0554 5.76625 8.45514 -68.2388 2.10664 46.2156 -0.898981 -28.6113 1.82922 -3.12872 3.22903 14.1857 -15.8479 0.0 0.0 0.0 23.5197 4.43047 8.12009 -23.0573 0.246817 3.5059 30.2364 15.2346 -3.96312 -9.40446 0.0 0.0 -0.0 0.0 -0.0 -26.3202 11.6159 7.71948 -11.9303 -0.304508 -1.80227 8.41709 -19.8384 1.22898 -12.3642 0.0 0.0 0.0 0.0 0.0 
1051.38 652.316 -560.525 -128.434 -89.0718 -134.074 0.797039 0.438298 2.80502 0.801379 0.258992 2.8272 0.815517 -0.30099 2.82304 0.804427 0.148449 2.83515 -6.30148 3.88834 0.299378 -6.29781 6.9784 1.04774 -0.0 0.0 -0.0 2.06285 16.1339 5.14001 -9.3701 -12.9448 70.2126 0.48545 -13.5218 0.0575507 -12.1899 -0.585324 1.44155 1.87008 23.8999 20.6862 -0.0 0.0 -0.0 12.1405 19.3589 -24.3007 2.85494 10.3317 -66.6889 2.07169 45.7369 -0.87385 -27.6247 1.74118 -3.03789 3.45865 15.3323 -16.889 0.0 0.0 0.0 21.6998 2.65852 8.10346 -23.3062 0.241747 3.54376 34.6268 15.9765 -4.43383 -8.15431 0.0 0.0 -0.0 0.0 -0.0 -25.3424 11.5864 7.59066 -16.069 -0.321733 -2.43691 9.49793 -22.5746 1.39778 -13.4619 0.0 0.0 0.0 0.0 0.0 
1071.91 658.583 -569.225 -171.707 -89.5982 -176.756 0.791639 0.332125 2.51253 0.795135 0.171626 2.52856 0.803746 -0.328587 2.513 0.79494 0.072286 2.53334 -7.45548 3.60568 -0.034866 -7.45717 6.7372 0.720028 -0.0 0.0 -0.0 2.72199 16.7272 6.20596 -8.31629 -13.7228 70.3145 0.590246 -16.2986 0.0845234 -11.7715 -0.560202 1.39427 1.85056 25.7544 21.0483 -0.0 0.0 -0.0 11.8424 18.3191 -23.682 -0.163462 10.8124 -66.0408 2.06341 45.6223 -0.867929 -25.4961 1.55669 -2.83692 3.60311 18.2668 -16.4134 0.0 0.0 0.0 18.9438 1.80234 7.96566 -22.5332 0.256955 3.42611 34.4419 16.3792 -4.42084 -8.68225 0.0 0.0 -0.0 0.0 -0.0 -21.113 12.0539 6.91589 -25.8228 -0.181265 -3.92519 11.6416 -25.3412 1.72543 -14.5772 0.0 0.0 0.0 0.0 0.0 
1089.42 666.781 -576.356 114.444 -89.3678 110.291 0.81678 0.241578 2.0676 0.819152 0.109551 2.07878 0.823787 -0.300327 2.05989 0.817867 0.0286908 2.08146 -7.50371 3.60944 -0.44187 -7.50463 7.0364 0.31844 -0.0 0.0 -0.0 3.21869 17.3985 7.00363 -6.76044 -14.4694 70.6727 0.715459 -19.5152 0.123038 -10.6259 -0.493204 1.26391 2.08779 25.8738 22.5313 -0.0 0.0 -0.0 11.6699 17.3303 -23.3428 -3.18337 11.7774 -65.4882 2.05466 45.5005 -0.861678 -26.4814 1.64116 -2.93079 3.91193 19.186 -18.0687 0.0 0.0 0.0 17.1461 0.696613 7.78204 -23.4398 0.23896 3.56406 37.78 17.3599 -4.76579 -7.19923 0.0 0.0 -0.0 0.0 -0.0 -17.8847 12.3453 6.29747 -32.3295 0.0521856 -4.89594 17.6841 -27.0929 2.59198 -14.5266 0.0 0.0 0.0 0.0 0.0 
1107.54 671.438 -583.549 99.5779 -89.5337 96.0932 0.859213 0.133586 1.73885 0.860895 0.0226847 1.74383 0.861986 -0.318666 1.71462 0.857886 -0.0439171 1.74342 -7.87766 3.70622 -0.540592 -7.88045 7.29612 0.263541 -0.0 0.0 -0.0 3.65293 18.0269 7.68812 -5.19779 -15.0867 71.087 0.810393 -21.8726 0.156592 -10.1971 -0.468799 1.21478 2.14552 26.7421 23.0902 -0.0 0.0 -0.0 11.312 16.267 -22.5811 -5.63389 11.9538 -65.0949 1.99562 44.6657 -0.819868 -26.2341 1.6198 -2.90736 4.05549 20.3567 -18.4334 0.0 0.0 0.0 15.7889 -0.0132429 7.78882 -23.4381 0.238994 3.56381 37.9854 17.7215 -4.79191 -7.20758 0.0 0.0 -0.0 0.0 -0.0 -15.5475 13.6091 6.42881 -36.9818 0.285998 -5.5711 21.2536 -28.2709 3.09471 -14.6457 0.0 0.0 0.0 0.0 0.0 
